/* XPM */
static char * Light_icon_xpm[] = {
"40 40 25 1",
" 	c None",
".	c #FFFFFF",
"+	c #F9F9F9",
"@	c #FEFEFE",
"#	c #FCFCFC",
"$	c #F7F7F7",
"%	c #FAFAFA",
"&	c #EFEFEF",
"*	c #FDFDFD",
"=	c #F3F3F3",
"-	c #FBFBFB",
";	c #E9E9E9",
">	c #F5F5F5",
",	c #F1F1F1",
"'	c #F6F6F6",
")	c #F8F8F8",
"!	c #F0F0F0",
"~	c #EAEAEA",
"{	c #EBEBEB",
"]	c #F4F4F4",
"^	c #F2F2F2",
"/	c #DBDBDB",
"(	c #DDDDDD",
"_	c #DFDFDF",
":	c #DEDEDE",
"                                        ",
"                                        ",
"                   .+                   ",
"                   .@                   ",
"                   @.                   ",
"                   #$                   ",
"        %                     +&        ",
"        %@*       =*-;       *@=        ",
"         +@    >-.....@$    +*,         ",
"          =  &-@@......@*'  %)          ",
"            +.............)             ",
"           !.............@@*            ",
"           @..............@.)           ",
"          +@................*           ",
"          @.@................+          ",
"         $...................)          ",
"    +%+  &...................@  %.@>    ",
"   #.... -...................@ ~...*    ",
"         {....................          ",
"         '...................=          ",
"          @................@@]          ",
"          $.................@           ",
"           .@...............^           ",
"           ^...............%            ",
"            +@@..........@-             ",
"         >@+ @...........@> >-          ",
"        ^.*  ]*........@.%   @-         ",
"        @%    %........@@     @'        ",
"        >                               ",
"                                        ",
"               -@......@                ",
"               $@......@                ",
"                                        ",
"                 /(_::                  ",
"                 )...#                  ",
"                  '-$                   ",
"                                        ",
"                                        ",
"                                        ",
"                                        "};
